<svg width="120" height="96" fill="none" xmlns="http://www.w3.org/2000/svg"><path fill="#fff" d="M0 0h120v96H0z"/><path d="M107.6 48l-2.4-3.8-4-6.5v20.6l4-6.5 2.4-3.8zm-88.8-2.8v-7.5l-4 6.5-2.4 3.8 2.4 3.8 4 6.5V45.2z" fill="#8D7D52"/><path d="M105.2 24.6l-.4-.7V0H15.2v23.9l-.4.7L1.4 45.9 0 48l1.4 2.1 13.4 21.3.4.7V96h89.6V72l.4-.7L118.6 50l1.4-2-1.4-2.1-13.4-21.3zm-86.4-6.9V3.8h13.4l-9.4 14.9-1.4 2.1-2.6 4.2v-7.3zm8.7 74.5h-8.7V70.9l4 6.3 2.7 4.3 6.7 10.6h-4.7v.1zm24.3-78.7v72.9H36.2l-12.4-20-1-1.6-4-6.4V71l-4-6.3L4.3 48l10.4-16.6 4-6.3v12.6l4-6.4L36.2 9.6h15.6v3.9zm49.4 64.8v13.8H87.8l6.7-10.6 2.7-4.3 4-6.3v7.4zm4-13.7l-4 6.3V58.3l-4 6.4-1 1.6-12.4 20H68.2V9.6h15.6l13.4 21.6 4 6.4V25.1l-2.6-4.2-1.4-2.1-9.4-15h13.4V25l4 6.3L115.7 48l-10.5 16.6z" fill="#8D7D52"/></svg>