<svg width="160" height="95" fill="none" xmlns="http://www.w3.org/2000/svg"><g clip-path="url(#clip0_44_2452)"><path d="M89.455 54.845c-2.344 3.752-4.687 7.584-7.273 11.256 5.333 7.345 11.475 13.97 19.475 18.042L90.344 53.328c-.243.559-.566 1.038-.89 1.517z" fill="url(#paint0_linear_44_2452)"/><path d="M138.667 13.891c-3.152-1.677-6.546-2.874-10.101-3.672a40.234 40.234 0 00-8.808-.958c-13.172 0-22.627 5.668-30.223 13.491l5.98 16.047c6.465-8.622 13.657-14.69 24.243-14.69 1.212 0 2.343.08 3.474.24a24.45 24.45 0 0110.021 3.672c6.949 4.391 11.555 12.055 11.555 20.836 0 13.652-11.232 24.748-25.05 24.748a28.15 28.15 0 01-3.718-.24l-5.414 14.21c2.829.64 5.899.959 9.132 1.039 22.222 0 40.161-17.723 40.161-39.597.081-15.328-8.565-28.5-21.252-35.126z" fill="url(#paint1_linear_44_2452)"/><path d="M40.162 24.11c10.586 0 17.777 6.226 24.323 15.087l5.98-16.285C62.869 14.929 53.333 9.18 40.162 9.18c-2.99 0-5.819.319-8.647.958l5.414 14.21a22.03 22.03 0 013.233-.24z" fill="url(#paint2_linear_44_2452)"/><path d="M82.343 31.534c-3.232 4.47-6.141 9.1-8.97 13.651-.565.958-1.211 1.916-1.777 2.794-8 12.853-15.515 23.55-27.798 25.307-1.131.16-2.343.24-3.636.24-13.819 0-25.05-11.097-25.05-24.749 0-8.701 4.605-16.365 11.555-20.756l-5.334-14.21C8.646 20.517 0 33.689 0 48.857c0 21.874 18.02 39.597 40.162 39.597 3.232 0 6.222-.32 8.97-.958a36.276 36.276 0 008.969-3.273c12.606-6.546 20.687-19.48 28.04-31.294.808-1.358 1.697-2.635 2.505-3.992l-6.303-17.403z" fill="url(#paint3_linear_44_2452)"/><path d="M132.121.878l-3.475 9.34c3.556.799 6.95 1.996 10.102 3.672L143.677.878h-11.556zM52.04 95h2.182l3.96-10.777a36.28 36.28 0 01-8.97 3.273L52.04 95zm54.788-26.823h-.323l-10.99-29.379-5.98-16.046L81.051 0h-2.182l-8.404 22.992-5.98 16.285-10.586 28.9h-.323L36.929 24.349l-5.414-14.21L28.04.879H16.323l4.93 13.012 5.414 14.21 17.131 45.264C56.081 71.61 63.515 60.832 71.596 48.06l8.162-22.193h.404l2.1 5.668 6.385 17.483 1.616 4.47 11.313 30.815 3.959 10.778h2.182l2.828-7.504 5.415-14.21 17.373-45.345a24.444 24.444 0 00-10.02-3.672l-16.485 43.828z" fill="#000"/></g><defs><linearGradient id="paint0_linear_44_2452" x1="91.952" y1="84.214" x2="91.952" y2="53.425" gradientUnits="userSpaceOnUse"><stop offset=".145" stop-color="#AF7C58"/><stop offset=".28" stop-color="#B88A68"/><stop offset=".544" stop-color="#D0AE92"/><stop offset=".694" stop-color="#E0C5AC"/></linearGradient><linearGradient id="paint1_linear_44_2452" x1="124.786" y1="88.483" x2="124.786" y2="9.235" gradientUnits="userSpaceOnUse"><stop offset=".145" stop-color="#AF7C58"/><stop offset=".28" stop-color="#B88A68"/><stop offset=".544" stop-color="#D0AE92"/><stop offset=".694" stop-color="#E0C5AC"/></linearGradient><linearGradient id="paint2_linear_44_2452" x1="51.018" y1="39.242" x2="51.018" y2="9.235" gradientUnits="userSpaceOnUse"><stop offset=".145" stop-color="#AF7C58"/><stop offset=".28" stop-color="#B88A68"/><stop offset=".544" stop-color="#D0AE92"/><stop offset=".694" stop-color="#E0C5AC"/></linearGradient><linearGradient id="paint3_linear_44_2452" x1="44.365" y1="88.483" x2="44.365" y2="13.884" gradientUnits="userSpaceOnUse"><stop offset=".145" stop-color="#AF7C58"/><stop offset=".28" stop-color="#B88A68"/><stop offset=".544" stop-color="#D0AE92"/><stop offset=".694" stop-color="#E0C5AC"/></linearGradient><clipPath id="clip0_44_2452"><path fill="#fff" d="M0 0h160v95H0z"/></clipPath></defs></svg>