<svg width="125" height="47" fill="none" xmlns="http://www.w3.org/2000/svg"><path d="M15.289 30.628c0 .746.15 1.392.498 1.84.348.497 1.145.945 2.39 1.342v.796H6.026v-.796c1.295-.397 2.091-.845 2.39-1.342.349-.497.498-1.094.498-1.84V9.696c0-.746-.15-1.243-.398-1.442-.25-.2-.747-.299-1.444-.299h-2.79L.798 14.916H.05v-8.95h24.153v8.95h-.797l-3.536-6.96h-2.788c-.698 0-1.196.099-1.445.298-.249.199-.398.646-.398 1.442v20.932h.05zM25 20.386c0-2.039.299-3.978.946-5.818.648-1.84 1.494-3.38 2.64-4.773a12.918 12.918 0 013.934-3.232 10.217 10.217 0 014.83-1.193c1.793 0 3.387.398 4.93 1.193a12.789 12.789 0 013.935 3.232c1.096 1.342 1.992 2.934 2.64 4.773.647 1.84.946 3.78.946 5.818 0 2.088-.299 3.977-.946 5.767-.648 1.79-1.494 3.381-2.64 4.724-1.096 1.342-2.44 2.386-3.934 3.182-1.494.796-3.138 1.193-4.93 1.193-1.743 0-3.337-.398-4.831-1.193a13.363 13.363 0 01-3.934-3.182 15.502 15.502 0 01-2.64-4.724A18.188 18.188 0 0125 20.386zm6.972.05c0 1.84.1 3.53.349 5.12.249 1.592.597 2.984 1.046 4.177.448 1.194 1.045 2.088 1.693 2.785.697.646 1.444.994 2.34.994.897 0 1.694-.348 2.39-.994.698-.647 1.246-1.591 1.744-2.785.448-1.193.797-2.585 1.046-4.176.249-1.591.348-3.282.348-5.122 0-1.84-.1-3.53-.348-5.17-.25-1.592-.598-3.034-1.046-4.227-.448-1.193-1.046-2.138-1.743-2.884-.697-.696-1.494-1.044-2.39-1.044-.897 0-1.644.348-2.341 1.044-.697.696-1.245 1.641-1.694 2.884-.448 1.193-.796 2.586-1.045 4.226-.25 1.641-.349 3.332-.349 5.171zm19.97-1.989c0-1.641.299-3.232.897-4.823.597-1.591 1.444-2.934 2.49-4.177 1.095-1.193 2.34-2.188 3.834-2.933 1.494-.746 3.138-1.094 4.93-1.094.748 0 1.495.1 2.192.248.697.15 1.344.348 2.042.647.647-2.039 1.743-3.48 3.187-4.376C73.008 1.044 74.65.497 76.494.2v5.867a6.692 6.692 0 00-2.789-.597c-.747 0-1.444.1-2.141.348-.697.25-1.295.647-1.743 1.194 1.942 1.193 3.536 2.834 4.631 4.872a13.111 13.111 0 011.693 6.514c0 1.69-.298 3.282-.896 4.823a13.845 13.845 0 01-2.49 4.127c-1.096 1.193-2.34 2.187-3.835 2.883-1.494.746-3.087 1.094-4.88 1.094-1.743 0-3.287-.348-4.731-.994-.25.249-.399.597-.399 1.044 0 .796.399 1.392 1.245 1.79.847.398 1.893.746 3.188.994a77.8 77.8 0 004.133.697c1.494.248 2.888.547 4.183.944 1.295.398 2.341.945 3.188 1.641.846.696 1.294 1.69 1.294 2.934 0 1.243-.398 2.237-1.195 3.033-.797.795-1.793 1.442-2.988 1.939-1.195.497-2.49.845-3.934 1.044a29.682 29.682 0 01-4.034.298c-1.594 0-3.187-.149-4.681-.447-1.544-.299-2.839-.696-4.034-1.243-1.146-.547-2.092-1.194-2.789-2.039-.697-.845-1.046-1.79-1.046-2.884 0-.596.15-1.193.399-1.69.249-.497.796-1.044 1.543-1.542l6.375.995c-.399.895-.648 1.79-.598 2.685 0 .845.25 1.59.648 2.287.398.646.996 1.193 1.743 1.591.747.398 1.693.597 2.789.597 1.245 0 2.29-.299 3.137-.945.797-.646 1.195-1.64 1.195-3.033 0-1.243-.398-2.188-1.145-2.834-.747-.647-1.743-1.193-2.839-1.541a26.667 26.667 0 00-3.685-.846 54.57 54.57 0 01-3.685-.696c-1.146-.298-2.092-.696-2.839-1.193-.747-.497-1.145-1.243-1.145-2.238 0-.795.298-1.442.896-1.84.598-.447 1.494-.795 2.64-1.143-1.544-1.243-2.74-2.735-3.586-4.574-.946-1.74-1.345-3.68-1.345-5.668zm6.922.05c0 1.441.15 2.833.399 4.176a16.83 16.83 0 001.096 3.58c.448 1.044.996 1.84 1.643 2.486.647.646 1.345.945 2.092.945.747 0 1.394-.299 2.041-.945.648-.646 1.196-1.442 1.644-2.486a16.835 16.835 0 001.096-3.58c.249-1.343.398-2.735.398-4.177 0-1.442-.15-2.834-.398-4.226a17.322 17.322 0 00-1.096-3.63c-.448-1.093-.996-1.939-1.644-2.535-.647-.647-1.294-.945-2.041-.945-.747 0-1.494.298-2.092.945-.647.646-1.195 1.491-1.643 2.535a17.316 17.316 0 00-1.096 3.63 23.394 23.394 0 00-.398 4.226zm48.158 7.209h.747c.996 2.585 2.042 4.425 3.038 5.569 1.046 1.143 2.34 1.74 3.884 1.74 1.345 0 2.341-.348 3.038-1.094.697-.746.996-1.591.996-2.586 0-.994-.299-1.889-.847-2.734-.597-.796-1.294-1.641-2.191-2.387-.896-.795-1.842-1.541-2.838-2.337a23.392 23.392 0 01-2.839-2.536c-.896-.895-1.594-1.889-2.191-2.933-.598-1.094-.847-2.287-.847-3.68 0-.894.15-1.79.448-2.684.299-.895.797-1.641 1.445-2.337.647-.696 1.494-1.243 2.539-1.641 1.046-.398 2.291-.646 3.735-.646 1.096 0 2.192.149 3.287.397 1.046.249 2.042.647 2.939 1.144l1.792-.995h.747v9.249h-.747c-.747-2.288-1.693-4.177-2.838-5.669-1.195-1.491-2.59-2.237-4.184-2.237-.697 0-1.245.15-1.693.447-.448.299-.797.647-.996 1.045-.249.397-.398.845-.498 1.243-.099.447-.149.795-.149 1.093 0 .945.299 1.84.846 2.586a13.39 13.39 0 002.192 2.287 70.4 70.4 0 002.838 2.238 27.068 27.068 0 012.839 2.436c.896.845 1.594 1.79 2.191 2.834.598 1.044.847 2.237.847 3.53 0 .895-.15 1.79-.448 2.735a6.814 6.814 0 01-1.544 2.635c-.697.796-1.644 1.442-2.739 1.989-1.096.497-2.49.796-4.084.796-.498 0-1.096-.05-1.793-.1-.697-.05-1.444-.199-2.241-.348-.747-.15-1.544-.398-2.39-.696-.797-.298-1.544-.646-2.241-1.094-.399.398-.847.795-1.345 1.144-.448.298-.946.547-1.594.795-.647.199-1.394.298-2.191.298a6.82 6.82 0 01-2.938-.646 5.737 5.737 0 01-2.44-1.939c-.498.497-1.245 1.044-2.241 1.64-.996.597-2.34.896-4.134.896-1.693 0-3.287-.348-4.78-1.044a11.302 11.302 0 01-3.885-2.984c-1.096-1.292-1.942-2.834-2.59-4.624-.647-1.79-.946-3.828-.946-6.066 0-2.088.299-4.077.847-5.916.597-1.84 1.394-3.431 2.39-4.774a11.464 11.464 0 013.685-3.232 9.502 9.502 0 014.682-1.193c.946 0 1.743.1 2.49.298.747.2 1.394.448 1.942.796.548.298 1.046.646 1.394.994a8.5 8.5 0 01.947.945l4.382-2.387h.847v23.37c0 1.093.249 1.84.747 2.336.498.497 1.145.696 1.892.696.797 0 1.494-.248 1.992-.795s.797-1.343.797-2.486v-3.381zM95.219 10.243a7.015 7.015 0 00-1.843-1.79 3.972 3.972 0 00-2.34-.746c-.946 0-1.743.298-2.49.944-.747.647-1.395 1.542-1.942 2.685-.548 1.144-.947 2.536-1.245 4.078-.3 1.59-.449 3.33-.449 5.17 0 2.039.15 3.829.498 5.42.349 1.591.747 2.934 1.345 4.027.548 1.094 1.195 1.94 1.892 2.536.698.597 1.445.895 2.192.895.946 0 1.842-.398 2.59-1.193.746-.796 1.394-1.79 1.941-2.983-.05-.2-.05-.498-.05-.846V10.242h-.099z" fill="#262524"/></svg>