<svg width="350" height="98" fill="none" xmlns="http://www.w3.org/2000/svg"><path d="M340.335 23.1c-5.854 0-9.53-4.238-9.53-9.705 0-5.33 4.356-9.705 9.53-9.705 5.445 0 9.665 4.374 9.665 9.705 0 5.467-4.356 9.704-9.665 9.704zm0-17.77c-4.493 0-8.032 3.691-8.032 8.201 0 4.51 3.267 8.201 8.032 8.201 4.492 0 8.031-3.69 8.031-8.2 0-4.511-3.539-8.201-8.031-8.201zM345.371 19h-2.178l-3.811-5.057v-.41c2.586 0 3.675-.82 3.675-2.188 0-1.503-1.089-2.186-2.586-2.186h-2.042v9.704h-1.77V7.654h3.948c1.906 0 4.084 1.094 4.084 3.554 0 1.503-1.089 2.733-2.995 3.28l3.675 4.51zM33.489 24.056L21.237 52.212h-1.634L0 3.827h11.707l9.938 23.782h.273L33.08 3.28h1.497l11.435 24.33h.273L55.95 3.826h11.708l-19.74 48.248h-1.633L33.76 23.92h-.272v.137zm168.67-20.229v39.227h21.917v8.338H191.54V3.827h10.619zm59.218 0h10.618v28.566c0 11.345-6.806 19.682-20.284 19.682-13.885 0-20.284-7.927-20.284-19.408V3.827h10.619V32.53c0 5.33 2.995 10.661 9.665 10.661 6.535 0 9.666-4.92 9.666-10.388V3.827zm41.248 24.603l-11.979 22.825h-11.572l14.022-24.466-13.069-22.825h11.435l11.163 21.322 11.027-21.322h11.572l-13.205 22.825c4.628 8.201 9.665 16.265 14.158 24.466h-11.708L302.625 28.43z" fill="#000"/><path d="M99.378 0C84.13 0 71.742 12.438 71.742 27.746c0 15.308 12.389 27.746 27.636 27.746V45.105c-9.53 0-17.153-7.791-17.153-17.222 0-9.568 7.76-17.222 17.153-17.222 8.848 0 14.294 6.424 19.603 14.898.272-.546.681-.957.953-1.503 1.633-2.734 3.267-5.467 5.173-8.064C118.981 7.244 111.494 0 99.377 0z" fill="url(#paint0_linear_44_2394)"/><path d="M153.967 0v10.388c9.53 0 17.153 7.79 17.153 17.222 0 9.43-7.76 17.221-17.153 17.221-8.985 0-14.43-6.424-19.739-14.761-.409.546-.681 1.093-1.089 1.777-1.634 2.596-3.267 5.33-5.037 7.927 5.99 8.474 13.613 15.582 25.865 15.582 15.247 0 27.635-12.438 27.635-27.747C181.602 12.302 169.214 0 153.967 0z" fill="url(#paint1_linear_44_2394)"/><path d="M122.112 25.15c-6.534 10.66-12.116 19.818-22.734 19.818v10.388c16.472 0 24.504-13.122 31.583-24.876 6.534-10.798 12.252-20.092 23.006-20.092V0c-16.472 0-24.64 13.395-31.855 25.15z" fill="url(#paint2_linear_44_2394)"/><path d="M132.458 91.03V74.9h-5.854v-3.416h15.928V74.9h-5.854v16.128h-4.22zm15.383.41c-1.225 0-2.178-.137-3.131-.547-.953-.41-1.633-.957-2.314-1.504-.681-.683-1.089-1.503-1.497-2.46-.273-.957-.545-1.914-.545-3.144 0-1.093.136-2.187.545-3.143.408-.957.816-1.777 1.497-2.46.681-.684 1.361-1.23 2.314-1.504.953-.41 1.906-.547 3.131-.547 1.089 0 2.179.137 2.995.547.817.41 1.634.82 2.315 1.503.68.684 1.089 1.504 1.497 2.46.408.957.545 2.05.545 3.144 0 1.094-.137 2.187-.545 3.144-.408.957-.817 1.777-1.497 2.46-.681.684-1.362 1.23-2.315 1.504-.953.41-1.906.546-2.995.546zm0-3.144c2.315 0 3.54-1.504 3.54-4.374 0-2.87-1.225-4.374-3.54-4.374-2.314 0-3.539 1.504-3.539 4.374 0 2.87 1.225 4.374 3.539 4.374zm19.331.82a2.7 2.7 0 01-1.497 1.503c-.681.41-1.498.547-2.45.547-1.226 0-2.179-.273-2.995-.683-.817-.41-1.498-.957-1.906-1.64-.545-.684-.817-1.504-1.089-2.324-.273-.957-.273-1.777-.273-2.734 0-1.093.137-2.187.545-3.143a5.533 5.533 0 011.361-2.324c.545-.683 1.225-1.23 2.042-1.504.817-.41 1.634-.546 2.451-.546 1.769 0 3.131.683 4.084 2.187V76.54h3.811v14.625c0 1.093-.136 2.05-.544 2.87-.408.82-.817 1.504-1.498 2.05-.68.547-1.361.957-2.314 1.23-.817.274-1.77.41-2.859.41a10.29 10.29 0 01-2.858-.41c-.817-.273-1.634-.683-2.179-1.23-.68-.546-1.089-1.23-1.497-1.913-.408-.683-.545-1.64-.545-2.597h3.54c0 .82.272 1.504.817 2.05.544.547 1.361.684 2.314.684 1.089 0 1.906-.274 2.586-.82.681-.547 1.09-1.367 1.09-2.324v-2.05h-.137zm-3.131-.957c.953 0 1.77-.41 2.315-1.093.68-.684.953-1.64.953-2.87 0-3.144-1.09-4.648-3.268-4.648s-3.267 1.504-3.267 4.374c0 1.23.272 2.324.953 3.144.681.683 1.361 1.093 2.314 1.093zm18.378 2.871c-.136-.41-.136-.82-.272-1.23-.408.546-1.089.956-1.77 1.23-.68.273-1.633.41-2.586.41-1.634 0-2.859-.41-3.676-1.094-.817-.684-1.225-1.64-1.225-2.87 0-1.094.136-1.914.544-2.46.273-.684.817-1.094 1.362-1.504.544-.41 1.225-.684 2.042-.82.817-.137 1.633-.274 2.722-.41.953-.137 1.634-.274 1.906-.547.273-.273.545-.547.545-1.094 0-.41-.272-.82-.681-1.093-.408-.273-1.089-.41-1.77-.41-.816 0-1.497.137-1.905.547-.409.41-.681.956-.681 1.503h-3.54c0-.683.137-1.503.409-2.05.272-.683.544-1.23 1.089-1.64.544-.41 1.089-.82 1.906-1.094.817-.273 1.77-.41 2.995-.41 1.089 0 2.042.137 2.859.41.816.274 1.361.684 1.905 1.094.545.547.817 1.093 1.089 1.777.273.683.273 1.503.273 2.46v9.158h-3.54v.136zm-.272-7.108c-.136.136-.545.41-.817.41-.408.137-.953.273-1.633.41-1.089.273-1.906.547-2.315.82-.408.273-.68.82-.68 1.504 0 1.093.68 1.64 1.906 1.64.544 0 .952-.137 1.361-.274.408-.136.817-.41 1.089-.683a4.19 4.19 0 00.681-.957c.136-.41.272-.82.272-1.23l.136-1.64zm14.703-3.007c-.137-.683-.409-1.094-.817-1.504-.409-.273-.953-.41-1.77-.41-.817 0-1.361.137-1.77.274-.408.136-.544.546-.544.957 0 .41.136.683.544.956.409.274.953.41 1.77.684 1.225.41 2.314.683 3.131.957.817.273 1.498.546 2.042.82.545.273.953.82 1.089 1.23.272.546.272 1.23.272 2.05 0 1.23-.544 2.323-1.633 3.28-1.089.82-2.723 1.23-4.765 1.23-1.089 0-2.042-.136-2.859-.41-.816-.273-1.497-.546-2.178-.956-.544-.41-1.089-.957-1.361-1.64-.272-.684-.545-1.367-.545-2.05h3.948c0 .683.272 1.23.817 1.64.545.41 1.225.546 2.042.546.681 0 1.361-.137 1.906-.273.544-.274.817-.547.817-1.094 0-.546-.136-.956-.545-1.093-.408-.273-.953-.41-1.77-.684-1.361-.273-2.586-.683-3.403-.956-.817-.41-1.497-.684-2.042-1.094-.544-.41-.817-.82-.953-1.367-.136-.546-.272-1.093-.272-1.64 0-.546.136-1.093.272-1.503.272-.547.545-.957 1.089-1.367.545-.41 1.089-.684 1.906-.957.817-.273 1.77-.273 2.859-.273 2.042 0 3.539.41 4.492 1.23.953.82 1.498 2.05 1.634 3.554h-3.403v-.137zm24.776-3.69c-.136-.957-.409-1.777-1.089-2.187-.681-.547-1.634-.684-2.859-.684-2.314 0-3.54.82-3.54 2.324 0 .547.273 1.093.681 1.367.545.41 1.225.683 2.314.956 1.226.274 2.315.547 3.268.82.953.274 1.769.547 2.586.82.409.137.817.41 1.225.684.409.273.681.547.953.957.273.41.545.82.681 1.367.136.546.272 1.23.272 2.05 0 .956-.136 1.776-.544 2.46-.409.683-.953 1.367-1.634 1.777-.681.546-1.497.82-2.314 1.093-.953.274-1.906.41-2.859.41-2.859 0-5.037-.546-6.398-1.64-1.498-1.093-2.178-2.734-2.315-4.92h3.948c0 .956.409 1.776 1.226 2.323.816.547 1.769.82 2.994.82 1.362 0 2.315-.273 2.995-.683.681-.41.953-1.094.953-1.914 0-.273 0-.546-.136-.82-.136-.273-.272-.547-.408-.683-.272-.273-.545-.41-.953-.547a22.312 22.312 0 00-1.498-.41c-1.497-.273-2.722-.683-3.811-.957-1.089-.273-2.042-.683-2.723-1.23-.681-.547-1.225-1.093-1.497-1.777-.273-.683-.545-1.503-.545-2.597 0-.82.136-1.503.408-2.323.273-.684.681-1.367 1.362-1.777.544-.547 1.361-.957 2.314-1.23.953-.273 1.906-.41 3.131-.41 1.225 0 2.178.136 3.131.41.953.273 1.77.683 2.451 1.367a6.049 6.049 0 011.633 2.05c.409.82.545 1.64.681 2.597h-4.084v.137zm14.294 4.237h3.539v4.1c0 .82-.136 1.504-.272 2.187-.272.683-.545 1.367-1.089 1.913-.545.547-1.089.957-1.77 1.23-.68.274-1.633.41-2.586.41-1.089 0-1.906-.136-2.723-.41-.681-.273-1.361-.683-1.77-1.23-.544-.546-.817-1.093-1.089-1.913-.272-.683-.272-1.503-.272-2.187V72.577h3.812v3.964h7.895v2.734H231.7v6.014c0 .957.136 1.64.544 2.187.409.546.953.82 1.634.82.817 0 1.361-.274 1.633-.684.409-.546.545-1.23.545-2.05v-4.1h-.136zm14.839 9.568c-.137-.41-.137-.82-.273-1.23-.408.546-1.089.956-1.769 1.23-.681.273-1.634.41-2.587.41-1.634 0-2.859-.41-3.676-1.094-.816-.684-1.225-1.64-1.225-2.87 0-1.094.136-1.914.545-2.46.272-.684.817-1.094 1.361-1.504.545-.41 1.225-.684 2.042-.82a60.606 60.606 0 012.723-.41c.953-.137 1.633-.274 1.906-.547.272-.273.544-.547.544-1.094 0-.41-.272-.82-.68-1.093-.409-.273-1.09-.41-1.77-.41-.817 0-1.498.137-1.906.547-.408.41-.681.956-.681 1.503h-3.539c0-.683.136-1.503.408-2.05.272-.683.545-1.23 1.089-1.64.545-.41 1.089-.82 1.906-1.094.817-.273 1.77-.41 2.995-.41 1.089 0 2.042.137 2.859.41.817.274 1.361.684 1.906 1.094.544.547.817 1.093 1.089 1.777.272.683.272 1.503.272 2.46v9.158h-3.539v.136zm-.273-7.108c-.136.136-.544.41-.816.41-.409.137-.953.273-1.634.41-1.089.273-1.906.547-2.314.82-.409.273-.681.82-.681 1.504 0 1.093.681 1.64 1.906 1.64.544 0 .953-.137 1.361-.274a2.95 2.95 0 001.089-.683 4.11 4.11 0 00.681-.957c.136-.41.272-.82.272-1.23l.136-1.64zm15.247 7.108v-8.748c0-1.094-.136-1.914-.544-2.324-.409-.41-.953-.547-1.906-.547-2.042 0-2.995 1.094-2.995 3.28v8.338h-3.812V76.541h3.676v2.05a4.819 4.819 0 011.769-1.913c.681-.41 1.634-.684 2.859-.684.681 0 1.362.137 1.906.274.545.136 1.089.546 1.498.957.408.41.816.956.953 1.503.272.547.408 1.23.408 2.05v10.115h-3.812v.136zm16.2 0v-1.778c-.817 1.504-2.178 2.187-4.084 2.187-.953 0-1.77-.136-2.586-.546-.817-.41-1.362-.82-1.906-1.504-.545-.683-.953-1.504-1.362-2.46-.272-.957-.408-2.05-.408-3.28 0-1.094.136-2.05.408-3.008.273-.956.681-1.64 1.226-2.323.544-.683 1.089-1.23 1.905-1.504.681-.41 1.634-.546 2.451-.546 1.77 0 3.267.82 4.356 2.323v-7.244h3.812v19.819h-3.812v-.137zm-3.131-2.734c.953 0 1.634-.41 2.314-1.094.681-.82.953-1.777.953-3.007 0-3.143-1.089-4.784-3.267-4.784s-3.267 1.504-3.267 4.51c0 1.23.272 2.324.953 3.144.544.82 1.361 1.23 2.314 1.23zm18.106 2.734c-.136-.41-.136-.82-.273-1.23-.408.546-1.089.956-1.769 1.23-.681.273-1.634.41-2.587.41-1.633 0-2.859-.41-3.675-1.094-.817-.684-1.226-1.64-1.226-2.87 0-1.094.137-1.914.545-2.46.272-.684.817-1.094 1.361-1.504.545-.41 1.225-.684 2.042-.82a60.606 60.606 0 012.723-.41c.953-.137 1.634-.274 1.906-.547s.544-.547.544-1.094c0-.41-.272-.82-.68-1.093-.409-.273-1.089-.41-1.77-.41-.817 0-1.498.137-1.906.547-.408.41-.681.956-.681 1.503h-3.539c0-.683.136-1.503.408-2.05.273-.683.545-1.23 1.089-1.64.545-.41 1.089-.82 1.906-1.094.817-.273 1.77-.41 2.995-.41 1.089 0 2.042.137 2.859.41.817.274 1.361.684 1.906 1.094.544.547.817 1.093 1.089 1.777.272.683.272 1.503.272 2.46v9.158h-3.539v.136zm-.273-7.108c-.136.136-.544.41-.816.41-.409.137-.953.273-1.634.41-1.089.273-1.906.547-2.314.82-.409.273-.681.82-.681 1.504 0 1.093.681 1.64 1.906 1.64.545 0 .953-.137 1.361-.274a2.95 2.95 0 001.089-.683 4.11 4.11 0 00.681-.957c.136-.41.272-.82.272-1.23l.136-1.64zm6.127 7.108V76.54h3.539v1.777c.272-.547.681-.82.953-1.093.409-.274.681-.547 1.089-.684.409-.136.681-.273 1.089-.273h1.634v3.964c-.409 0-.681-.137-1.089-.137-2.314 0-3.54 1.23-3.54 3.554v7.517h-3.675v-.137zm19.603 0v-1.778c-.817 1.504-2.178 2.187-4.084 2.187-.953 0-1.77-.136-2.587-.546-.816-.41-1.361-.82-1.905-1.504-.545-.683-.953-1.504-1.362-2.46-.272-.957-.408-2.05-.408-3.28 0-1.094.136-2.05.408-3.008.272-.956.681-1.64 1.225-2.323.545-.683 1.089-1.23 1.906-1.504.681-.41 1.634-.546 2.451-.546 1.769 0 3.267.82 4.356 2.323v-7.244h3.812v19.819h-3.812v-.137zm-3.131-2.734c.953 0 1.633-.41 2.314-1.094.681-.82.953-1.777.953-3.007 0-3.143-1.089-4.784-3.267-4.784s-3.267 1.504-3.267 4.51c0 1.23.272 2.324.953 3.144.544.82 1.361 1.23 2.314 1.23z" fill="#000"/><defs><linearGradient id="paint0_linear_44_2394" x1="98.411" y1="55.395" x2="98.411" y2="0" gradientUnits="userSpaceOnUse"><stop offset=".306" stop-color="#E0C5AC"/><stop offset=".456" stop-color="#D0AE92"/><stop offset=".72" stop-color="#B88A68"/><stop offset=".855" stop-color="#AF7C58"/></linearGradient><linearGradient id="paint1_linear_44_2394" x1="154.91" y1="55.395" x2="154.91" y2="0" gradientUnits="userSpaceOnUse"><stop offset=".306" stop-color="#E0C5AC"/><stop offset=".456" stop-color="#D0AE92"/><stop offset=".72" stop-color="#B88A68"/><stop offset=".855" stop-color="#AF7C58"/></linearGradient><linearGradient id="paint2_linear_44_2394" x1="99.372" y1="27.697" x2="154.024" y2="27.697" gradientUnits="userSpaceOnUse"><stop offset=".306" stop-color="#E0C5AC"/><stop offset=".456" stop-color="#D0AE92"/><stop offset=".72" stop-color="#B88A68"/><stop offset=".855" stop-color="#AF7C58"/></linearGradient></defs></svg>