<svg width="120" height="96" viewBox="0 0 120 96" fill="none" xmlns="http://www.w3.org/2000/svg">
<rect width="120" height="96" fill="white"/>
<path d="M107.6 48.0002L105.2 44.2002L101.2 37.7002V45.2002V50.8002V58.3002L105.2 51.8002L107.6 48.0002Z" fill="#8D7D52"/>
<path d="M18.7999 45.2002V37.7002L14.7999 44.2002L12.3999 48.0002L14.7999 51.8002L18.7999 58.3002V50.8002V45.2002Z" fill="#8D7D52"/>
<path d="M105.2 24.6L104.8 23.9V23.3V3.8V0H101.2H90.1H89.7H87.8H60H32.2H30.3H29.9H18.8H15.2V3.8V23.3V23.9L14.8 24.6L1.4 45.9L0 48L1.4 50.1L14.8 71.4L15.2 72.1V72.7V92.2V96H18.8H29.9H30.3H32.2H60H87.8H89.7H90.1H101.2H104.8V92.2V72.6V72L105.2 71.3L118.6 50L120 48L118.6 45.9L105.2 24.6ZM18.8 17.7V3.8H27.5H32.2L22.8 18.7L21.4 20.8L18.8 25V17.7ZM27.5 92.2H18.8V78.3V70.9L22.8 77.2L25.5 81.5L32.2 92.1H27.5V92.2ZM51.8 13.5V82.6V86.4H36.2L23.8 66.4L22.8 64.8L18.8 58.4V71L14.8 64.7L4.3 48L14.7 31.4L18.7 25.1V37.7L22.7 31.3L36.2 9.6H51.8V13.5ZM101.2 78.3V92.1H92.5H87.8L94.5 81.5L97.2 77.2L101.2 70.9V78.3ZM105.2 64.6L101.2 70.9V58.3L97.2 64.7L96.2 66.3L83.8 86.3H68.2V82.5V13.5V9.6H83.8L97.2 31.2L101.2 37.6V25.1L98.6 20.9L97.2 18.8L87.8 3.8H92.5H101.2V17.6V25L105.2 31.3L115.7 48L105.2 64.6Z" fill="#8D7D52"/>
</svg>
