<svg width="160" height="95" viewBox="0 0 160 95" fill="none" xmlns="http://www.w3.org/2000/svg">
<g clip-path="url(#clip0_44_2452)">
<path d="M89.4546 54.8449C87.1112 58.597 84.7677 62.429 82.1819 66.1012C87.5152 73.4458 93.6566 80.0718 101.657 84.1432L90.3435 53.3281C90.1011 53.8869 89.7778 54.3659 89.4546 54.8449Z" fill="url(#paint0_linear_44_2452)"/>
<path d="M138.667 13.891C135.515 12.2145 132.121 11.017 128.566 10.2187C125.737 9.58007 122.748 9.26074 119.758 9.26074C106.586 9.26074 97.1314 14.9288 89.5354 22.7523L95.5152 38.7986C101.98 30.1767 109.172 24.1095 119.758 24.1095C120.97 24.1095 122.101 24.1893 123.232 24.349C126.869 24.828 130.263 26.1053 133.253 28.0212C140.202 32.412 144.808 40.0759 144.808 48.8574C144.808 62.5086 133.576 73.6053 119.758 73.6053C118.465 73.6053 117.253 73.5255 116.04 73.3658L110.626 87.5759C113.455 88.2145 116.525 88.5339 119.758 88.6137C141.98 88.6137 159.919 70.891 159.919 49.017C160 33.6893 151.354 20.517 138.667 13.891Z" fill="url(#paint1_linear_44_2452)"/>
<path d="M40.1616 24.1092C50.7475 24.1092 57.9394 30.3361 64.4848 39.1975L70.4646 22.9118C62.8687 14.9286 53.3333 9.18066 40.1616 9.18066C37.1717 9.18066 34.3434 9.49999 31.5151 10.1386L36.9293 24.3487C37.9798 24.1891 39.1111 24.1092 40.1616 24.1092Z" fill="url(#paint2_linear_44_2452)"/>
<path d="M82.3434 31.5337C79.1111 36.0043 76.202 40.6346 73.3737 45.185C72.8081 46.143 72.1616 47.101 71.596 47.9791C63.596 60.832 56.0808 71.5295 43.798 73.2858C42.6667 73.4455 41.4545 73.5253 40.1616 73.5253C26.3434 73.5253 15.1111 62.4287 15.1111 48.7774C15.1111 40.0757 19.7172 32.4119 26.6667 28.0211L21.3333 13.811C8.64646 20.5169 0 33.6892 0 48.8573C0 70.7312 18.0202 88.4539 40.1616 88.4539C43.3939 88.4539 46.3838 88.1346 49.1313 87.4959C52.3636 86.7774 55.3535 85.6598 58.101 84.2228C70.7071 77.6766 78.7879 64.7438 86.1414 52.9287C86.9495 51.5715 87.8384 50.2942 88.6465 48.9371L82.3434 31.5337Z" fill="url(#paint3_linear_44_2452)"/>
<path d="M132.121 0.87793L128.646 10.2183C132.202 11.0166 135.596 12.2141 138.748 13.8905L143.677 0.87793H132.121Z" fill="black"/>
<path d="M52.0404 95H54.2223L58.1819 84.2227C55.4344 85.6596 52.4445 86.7773 49.2122 87.4958L52.0404 95Z" fill="black"/>
<path d="M106.828 68.1765H106.505L95.5152 38.7983L89.5354 22.7521L81.0505 0H78.8687L70.4647 22.9916L64.4849 39.2773L53.899 68.1765H53.5758L36.9293 24.3487L31.5152 10.1387L28.0404 0.878151H16.3232L21.2525 13.8908L26.6667 28.1008L43.798 73.3655C56.0808 71.6092 63.5152 60.8319 71.596 48.0588L79.7576 25.8655H80.1616L82.2626 31.5336L88.6465 49.0168L90.2626 53.4874L101.576 84.3025L105.535 95.0798H107.717L110.545 87.5756L115.96 73.3655L133.333 28.021C130.343 26.105 126.95 24.8277 123.313 24.3487L106.828 68.1765Z" fill="black"/>
</g>
<defs>
<linearGradient id="paint0_linear_44_2452" x1="91.9522" y1="84.2141" x2="91.9522" y2="53.4247" gradientUnits="userSpaceOnUse">
<stop offset="0.145" stop-color="#AF7C58"/>
<stop offset="0.2804" stop-color="#B88A68"/>
<stop offset="0.544" stop-color="#D0AE92"/>
<stop offset="0.6942" stop-color="#E0C5AC"/>
</linearGradient>
<linearGradient id="paint1_linear_44_2452" x1="124.786" y1="88.4826" x2="124.786" y2="9.23543" gradientUnits="userSpaceOnUse">
<stop offset="0.145" stop-color="#AF7C58"/>
<stop offset="0.2804" stop-color="#B88A68"/>
<stop offset="0.544" stop-color="#D0AE92"/>
<stop offset="0.6942" stop-color="#E0C5AC"/>
</linearGradient>
<linearGradient id="paint2_linear_44_2452" x1="51.0177" y1="39.2416" x2="51.0177" y2="9.23519" gradientUnits="userSpaceOnUse">
<stop offset="0.145" stop-color="#AF7C58"/>
<stop offset="0.2804" stop-color="#B88A68"/>
<stop offset="0.544" stop-color="#D0AE92"/>
<stop offset="0.6942" stop-color="#E0C5AC"/>
</linearGradient>
<linearGradient id="paint3_linear_44_2452" x1="44.3653" y1="88.4828" x2="44.3653" y2="13.8836" gradientUnits="userSpaceOnUse">
<stop offset="0.145" stop-color="#AF7C58"/>
<stop offset="0.2804" stop-color="#B88A68"/>
<stop offset="0.544" stop-color="#D0AE92"/>
<stop offset="0.6942" stop-color="#E0C5AC"/>
</linearGradient>
<clipPath id="clip0_44_2452">
<rect width="160" height="95" fill="white"/>
</clipPath>
</defs>
</svg>
