<svg width="350" height="98" viewBox="0 0 350 98" fill="none" xmlns="http://www.w3.org/2000/svg">
<path d="M340.335 23.0991C334.481 23.0991 330.805 18.862 330.805 13.3948C330.805 8.06421 335.161 3.69043 340.335 3.69043C345.78 3.69043 350 8.06421 350 13.3948C350 18.862 345.644 23.0991 340.335 23.0991ZM340.335 5.3306C335.842 5.3306 332.303 9.02097 332.303 13.5314C332.303 18.0419 335.57 21.7323 340.335 21.7323C344.827 21.7323 348.366 18.0419 348.366 13.5314C348.366 9.02097 344.827 5.3306 340.335 5.3306ZM345.371 18.9987H343.193L339.382 13.9415V13.5314C341.968 13.5314 343.057 12.7114 343.057 11.3445C343.057 9.84106 341.968 9.15765 340.471 9.15765H338.429V18.862H336.659V7.65417H340.607C342.513 7.65417 344.691 8.74761 344.691 11.2079C344.691 12.7114 343.602 13.9415 341.696 14.4882L345.371 18.9987Z" fill="black"/>
<path d="M33.4889 24.0557L21.2369 52.2119H19.6033L0 3.827H11.7075L21.6453 27.6094H21.9175L33.0805 3.28027H34.578L46.0132 27.6094H46.2855L55.951 3.827H67.6585L47.9191 52.0752H46.2855L33.7612 23.919H33.4889V24.0557Z" fill="black"/>
<path d="M202.159 3.82715V43.0545H224.076V51.392H191.54V3.82715H202.159Z" fill="black"/>
<path d="M261.377 3.82715H271.995V32.3934C271.995 43.7379 265.189 52.0754 251.711 52.0754C237.826 52.0754 231.427 44.1479 231.427 32.6668V3.82715H242.046V32.5301C242.046 37.8606 245.041 43.1912 251.711 43.1912C258.246 43.1912 261.377 38.2707 261.377 32.8034V3.82715Z" fill="black"/>
<path d="M302.625 28.4295L290.646 51.2551H279.074L293.096 26.7893L280.027 3.96362H291.462L302.625 25.2858L313.652 3.96362H325.224L312.019 26.7893C316.647 34.9901 321.684 43.0543 326.177 51.2551H314.469L302.625 28.4295Z" fill="black"/>
<path d="M99.3776 0C84.1306 0 71.7424 12.4379 71.7424 27.7462C71.7424 43.0544 84.1306 55.4923 99.3776 55.4923V45.1046C89.8482 45.1046 82.2247 37.3138 82.2247 27.8828C82.2247 18.3152 89.9844 10.6611 99.3776 10.6611C108.226 10.6611 113.672 17.0851 118.981 25.5593C119.253 25.0126 119.662 24.6025 119.934 24.0558C121.567 21.3222 123.201 18.5886 125.107 15.9916C118.981 7.24407 111.494 0 99.3776 0Z" fill="url(#paint0_linear_44_2394)"/>
<path d="M153.967 0V10.3877C163.497 10.3877 171.12 18.1785 171.12 27.6095C171.12 37.0405 163.36 44.8312 153.967 44.8312C144.982 44.8312 139.537 38.4073 134.228 30.0697C133.819 30.6165 133.547 31.1632 133.139 31.8466C131.505 34.4435 129.872 37.1771 128.102 39.7741C134.092 48.2483 141.715 55.3557 153.967 55.3557C169.214 55.3557 181.602 42.9177 181.602 27.6095C181.602 12.3013 169.214 0 153.967 0Z" fill="url(#paint1_linear_44_2394)"/>
<path d="M122.112 25.1492C115.578 35.8103 109.996 44.9679 99.3777 44.9679V55.3557C115.85 55.3557 123.882 42.2343 130.961 30.4798C137.495 19.682 143.213 10.3877 153.967 10.3877V0C137.495 0 129.327 13.3947 122.112 25.1492Z" fill="url(#paint2_linear_44_2394)"/>
<path d="M132.458 91.0292V74.9009H126.604V71.4839H142.532V74.9009H136.678V91.0292H132.458Z" fill="black"/>
<path d="M147.841 91.4393C146.616 91.4393 145.663 91.3027 144.71 90.8926C143.757 90.4826 143.077 89.9359 142.396 89.3891C141.715 88.7057 141.307 87.8856 140.899 86.9289C140.626 85.9721 140.354 85.0153 140.354 83.7852C140.354 82.6918 140.49 81.5983 140.899 80.6416C141.307 79.6848 141.715 78.8647 142.396 78.1813C143.077 77.4979 143.757 76.9512 144.71 76.6778C145.663 76.2678 146.616 76.1311 147.841 76.1311C148.93 76.1311 150.02 76.2678 150.836 76.6778C151.653 77.0879 152.47 77.4979 153.151 78.1813C153.831 78.8647 154.24 79.6848 154.648 80.6416C155.056 81.5983 155.193 82.6918 155.193 83.7852C155.193 84.8787 155.056 85.9721 154.648 86.9289C154.24 87.8856 153.831 88.7057 153.151 89.3891C152.47 90.0725 151.789 90.6193 150.836 90.8926C149.883 91.3027 148.93 91.4393 147.841 91.4393ZM147.841 88.2957C150.156 88.2957 151.381 86.7922 151.381 83.9219C151.381 81.0516 150.156 79.5481 147.841 79.5481C145.527 79.5481 144.302 81.0516 144.302 83.9219C144.302 86.7922 145.527 88.2957 147.841 88.2957Z" fill="black"/>
<path d="M167.172 89.1158C166.9 89.7992 166.356 90.3459 165.675 90.6193C164.994 91.0293 164.177 91.166 163.225 91.166C161.999 91.166 161.046 90.8926 160.23 90.4826C159.413 90.0726 158.732 89.5258 158.324 88.8424C157.779 88.159 157.507 87.3389 157.235 86.5189C156.962 85.5621 156.962 84.742 156.962 83.7853C156.962 82.6918 157.099 81.5984 157.507 80.6416C157.779 79.6848 158.324 78.8648 158.868 78.318C159.413 77.6346 160.093 77.0879 160.91 76.8145C161.727 76.4045 162.544 76.2678 163.361 76.2678C165.13 76.2678 166.492 76.9512 167.445 78.4547V76.5412H171.256V91.166C171.256 92.2594 171.12 93.2162 170.712 94.0363C170.304 94.8564 169.895 95.5398 169.214 96.0865C168.534 96.6332 167.853 97.0433 166.9 97.3166C166.083 97.59 165.13 97.7267 164.041 97.7267C163.088 97.7267 162.135 97.59 161.183 97.3166C160.366 97.0433 159.549 96.6332 159.004 96.0865C158.324 95.5398 157.915 94.8564 157.507 94.173C157.099 93.4896 156.962 92.5328 156.962 91.576H160.502C160.502 92.3961 160.774 93.0795 161.319 93.6263C161.863 94.173 162.68 94.3097 163.633 94.3097C164.722 94.3097 165.539 94.0363 166.219 93.4896C166.9 92.9429 167.309 92.1228 167.309 91.166V89.1158H167.172ZM164.041 88.159C164.994 88.159 165.811 87.749 166.356 87.0656C167.036 86.3822 167.309 85.4254 167.309 84.1953C167.309 81.0516 166.219 79.5482 164.041 79.5482C161.863 79.5482 160.774 81.0516 160.774 83.9219C160.774 85.1521 161.046 86.2455 161.727 87.0656C162.408 87.749 163.088 88.159 164.041 88.159Z" fill="black"/>
<path d="M182.419 91.0293C182.283 90.6192 182.283 90.2092 182.147 89.7991C181.739 90.3458 181.058 90.7559 180.377 91.0293C179.697 91.3026 178.744 91.4393 177.791 91.4393C176.157 91.4393 174.932 91.0293 174.115 90.3459C173.298 89.6624 172.89 88.7057 172.89 87.4756C172.89 86.3821 173.026 85.562 173.434 85.0153C173.707 84.3319 174.251 83.9219 174.796 83.5118C175.34 83.1018 176.021 82.8284 176.838 82.6917C177.655 82.5551 178.471 82.4184 179.56 82.2817C180.513 82.145 181.194 82.0083 181.466 81.735C181.739 81.4616 182.011 81.1883 182.011 80.6415C182.011 80.2315 181.739 79.8214 181.33 79.5481C180.922 79.2747 180.241 79.138 179.56 79.138C178.744 79.138 178.063 79.2747 177.655 79.6848C177.246 80.0948 176.974 80.6415 176.974 81.1883H173.434C173.434 80.5048 173.571 79.6848 173.843 79.138C174.115 78.4546 174.387 77.9079 174.932 77.4979C175.476 77.0878 176.021 76.6778 176.838 76.4044C177.655 76.1311 178.608 75.9944 179.833 75.9944C180.922 75.9944 181.875 76.1311 182.692 76.4044C183.508 76.6778 184.053 77.0878 184.597 77.4979C185.142 78.0446 185.414 78.5913 185.686 79.2747C185.959 79.9581 185.959 80.7782 185.959 81.735V90.8926H182.419V91.0293ZM182.147 83.9219C182.011 84.0585 181.602 84.3319 181.33 84.3319C180.922 84.4686 180.377 84.6053 179.697 84.7419C178.608 85.0153 177.791 85.2887 177.382 85.562C176.974 85.8354 176.702 86.3821 176.702 87.0655C176.702 88.159 177.382 88.7057 178.608 88.7057C179.152 88.7057 179.56 88.569 179.969 88.4323C180.377 88.2956 180.786 88.0223 181.058 87.7489C181.33 87.4756 181.602 87.0655 181.739 86.7922C181.875 86.3821 182.011 85.9721 182.011 85.562L182.147 83.9219Z" fill="black"/>
<path d="M196.85 80.915C196.713 80.2316 196.441 79.8215 196.033 79.4115C195.624 79.1381 195.08 79.0014 194.263 79.0014C193.446 79.0014 192.902 79.1381 192.493 79.2748C192.085 79.4115 191.949 79.8215 191.949 80.2316C191.949 80.6416 192.085 80.915 192.493 81.1883C192.902 81.4617 193.446 81.5984 194.263 81.8717C195.488 82.2818 196.577 82.5551 197.394 82.8285C198.211 83.1019 198.892 83.3752 199.436 83.6486C199.981 83.9219 200.389 84.4687 200.525 84.8787C200.797 85.4254 200.797 86.1088 200.797 86.9289C200.797 88.159 200.253 89.2525 199.164 90.2092C198.075 91.0293 196.441 91.4394 194.399 91.4394C193.31 91.4394 192.357 91.3027 191.54 91.0293C190.724 90.756 190.043 90.4826 189.362 90.0726C188.818 89.6625 188.273 89.1158 188.001 88.4324C187.729 87.749 187.456 87.0656 187.456 86.3822H191.404C191.404 87.0656 191.676 87.6123 192.221 88.0224C192.766 88.4324 193.446 88.5691 194.263 88.5691C194.944 88.5691 195.624 88.4324 196.169 88.2957C196.713 88.0224 196.986 87.749 196.986 87.2023C196.986 86.6555 196.85 86.2455 196.441 86.1088C196.033 85.8355 195.488 85.6988 194.671 85.4254C193.31 85.1521 192.085 84.742 191.268 84.4687C190.451 84.0586 189.771 83.7853 189.226 83.3752C188.682 82.9652 188.409 82.5551 188.273 82.0084C188.137 81.4617 188.001 80.915 188.001 80.3682C188.001 79.8215 188.137 79.2748 188.273 78.8648C188.545 78.318 188.818 77.908 189.362 77.4979C189.907 77.0879 190.451 76.8145 191.268 76.5412C192.085 76.2678 193.038 76.2678 194.127 76.2678C196.169 76.2678 197.666 76.6779 198.619 77.4979C199.572 78.318 200.117 79.5482 200.253 81.0516H196.85V80.915Z" fill="black"/>
<path d="M221.626 77.2245C221.49 76.2677 221.217 75.4476 220.537 75.0376C219.856 74.4909 218.903 74.3542 217.678 74.3542C215.364 74.3542 214.138 75.1743 214.138 76.6778C214.138 77.2245 214.411 77.7712 214.819 78.0446C215.364 78.4546 216.044 78.728 217.133 79.0013C218.359 79.2747 219.448 79.5481 220.401 79.8214C221.354 80.0948 222.17 80.3681 222.987 80.6415C223.396 80.7782 223.804 81.0515 224.212 81.3249C224.621 81.5983 224.893 81.8716 225.165 82.2817C225.438 82.6917 225.71 83.1018 225.846 83.6485C225.982 84.1952 226.118 84.8786 226.118 85.6987C226.118 86.6554 225.982 87.4755 225.574 88.1589C225.165 88.8423 224.621 89.5257 223.94 89.9358C223.259 90.4825 222.443 90.7559 221.626 91.0292C220.673 91.3026 219.72 91.4393 218.767 91.4393C215.908 91.4393 213.73 90.8925 212.369 89.7991C210.871 88.7057 210.191 87.0655 210.054 84.8786H214.002C214.002 85.8354 214.411 86.6554 215.228 87.2022C216.044 87.7489 216.997 88.0223 218.222 88.0223C219.584 88.0223 220.537 87.7489 221.217 87.3389C221.898 86.9288 222.17 86.2454 222.17 85.4253C222.17 85.152 222.17 84.8786 222.034 84.6052C221.898 84.3319 221.762 84.0585 221.626 83.9218C221.354 83.6485 221.081 83.5118 220.673 83.3751C220.264 83.2384 219.72 83.1018 219.175 82.9651C217.678 82.6917 216.453 82.2817 215.364 82.0083C214.275 81.7349 213.322 81.3249 212.641 80.7782C211.96 80.2315 211.416 79.6847 211.144 79.0013C210.871 78.3179 210.599 77.4978 210.599 76.4044C210.599 75.5843 210.735 74.9009 211.007 74.0808C211.28 73.3974 211.688 72.714 212.369 72.304C212.913 71.7573 213.73 71.3472 214.683 71.0739C215.636 70.8005 216.589 70.6638 217.814 70.6638C219.039 70.6638 219.992 70.8005 220.945 71.0739C221.898 71.3472 222.715 71.7573 223.396 72.4407C224.076 72.9874 224.621 73.6708 225.029 74.4909C225.438 75.311 225.574 76.131 225.71 77.0878H221.626V77.2245Z" fill="black"/>
<path d="M235.92 81.4616H239.459V85.5621C239.459 86.3821 239.323 87.0655 239.187 87.7489C238.915 88.4323 238.642 89.1158 238.098 89.6625C237.553 90.2092 237.009 90.6192 236.328 90.8926C235.648 91.166 234.695 91.3027 233.742 91.3027C232.653 91.3027 231.836 91.166 231.019 90.8926C230.338 90.6192 229.658 90.2092 229.249 89.6625C228.705 89.1158 228.432 88.569 228.16 87.7489C227.888 87.0655 227.888 86.2455 227.888 85.5621V72.5774H231.7V76.5411H239.595V79.2747H231.7V85.2887C231.7 86.2455 231.836 86.9289 232.244 87.4756C232.653 88.0223 233.197 88.2957 233.878 88.2957C234.695 88.2957 235.239 88.0223 235.511 87.6123C235.92 87.0655 236.056 86.3821 236.056 85.5621V81.4616H235.92Z" fill="black"/>
<path d="M250.759 91.0293C250.622 90.6192 250.622 90.2092 250.486 89.7991C250.078 90.3458 249.397 90.7559 248.717 91.0293C248.036 91.3026 247.083 91.4393 246.13 91.4393C244.496 91.4393 243.271 91.0293 242.454 90.3459C241.638 89.6624 241.229 88.7057 241.229 87.4756C241.229 86.3821 241.365 85.562 241.774 85.0153C242.046 84.3319 242.591 83.9219 243.135 83.5118C243.68 83.1018 244.36 82.8284 245.177 82.6917C245.994 82.5551 246.811 82.4184 247.9 82.2817C248.853 82.145 249.533 82.0083 249.806 81.735C250.078 81.4616 250.35 81.1883 250.35 80.6415C250.35 80.2315 250.078 79.8214 249.67 79.5481C249.261 79.2747 248.58 79.138 247.9 79.138C247.083 79.138 246.402 79.2747 245.994 79.6848C245.586 80.0948 245.313 80.6415 245.313 81.1883H241.774C241.774 80.5048 241.91 79.6848 242.182 79.138C242.454 78.4546 242.727 77.9079 243.271 77.4979C243.816 77.0878 244.36 76.6778 245.177 76.4044C245.994 76.1311 246.947 75.9944 248.172 75.9944C249.261 75.9944 250.214 76.1311 251.031 76.4044C251.848 76.6778 252.392 77.0878 252.937 77.4979C253.481 78.0446 253.754 78.5913 254.026 79.2747C254.298 79.9581 254.298 80.7782 254.298 81.735V90.8926H250.759V91.0293ZM250.486 83.9219C250.35 84.0585 249.942 84.3319 249.67 84.3319C249.261 84.4686 248.717 84.6053 248.036 84.7419C246.947 85.0153 246.13 85.2887 245.722 85.562C245.313 85.8354 245.041 86.3821 245.041 87.0655C245.041 88.159 245.722 88.7057 246.947 88.7057C247.491 88.7057 247.9 88.569 248.308 88.4323C248.717 88.2956 249.125 88.0223 249.397 87.7489C249.67 87.4756 249.942 87.0655 250.078 86.7922C250.214 86.3821 250.35 85.9721 250.35 85.562L250.486 83.9219Z" fill="black"/>
<path d="M265.733 91.0293V82.2817C265.733 81.1883 265.597 80.3682 265.189 79.9581C264.78 79.5481 264.236 79.4114 263.283 79.4114C261.241 79.4114 260.288 80.5048 260.288 82.6917V91.0293H256.476V76.5411H260.152V78.5913C260.56 77.7712 261.241 77.0878 261.921 76.6778C262.602 76.2677 263.555 75.9944 264.78 75.9944C265.461 75.9944 266.142 76.1311 266.686 76.2677C267.231 76.4044 267.775 76.8145 268.184 77.2245C268.592 77.6346 269 78.1813 269.137 78.728C269.409 79.2747 269.545 79.9581 269.545 80.7782V90.8926H265.733V91.0293Z" fill="black"/>
<path d="M281.933 91.0292V89.2523C281.116 90.7558 279.755 91.4392 277.849 91.4392C276.896 91.4392 276.079 91.3025 275.263 90.8925C274.446 90.4825 273.901 90.0724 273.357 89.389C272.812 88.7056 272.404 87.8855 271.995 86.9288C271.723 85.972 271.587 84.8786 271.587 83.6484C271.587 82.555 271.723 81.5982 271.995 80.6415C272.268 79.6847 272.676 79.0013 273.221 78.3179C273.765 77.6345 274.31 77.0878 275.126 76.8144C275.807 76.4044 276.76 76.2677 277.577 76.2677C279.347 76.2677 280.844 77.0878 281.933 78.5912V71.3472H285.745V91.1659H281.933V91.0292ZM278.802 88.2956C279.755 88.2956 280.436 87.8855 281.116 87.2021C281.797 86.382 282.069 85.4253 282.069 84.1951C282.069 81.0515 280.98 79.4113 278.802 79.4113C276.624 79.4113 275.535 80.9148 275.535 83.9218C275.535 85.1519 275.807 86.2454 276.488 87.0654C277.032 87.8855 277.849 88.2956 278.802 88.2956Z" fill="black"/>
<path d="M296.908 91.0293C296.772 90.6192 296.772 90.2092 296.635 89.7991C296.227 90.3458 295.546 90.7559 294.866 91.0293C294.185 91.3026 293.232 91.4393 292.279 91.4393C290.646 91.4393 289.42 91.0293 288.604 90.3459C287.787 89.6624 287.378 88.7057 287.378 87.4756C287.378 86.3821 287.515 85.562 287.923 85.0153C288.195 84.3319 288.74 83.9219 289.284 83.5118C289.829 83.1018 290.509 82.8284 291.326 82.6917C292.143 82.5551 292.96 82.4184 294.049 82.2817C295.002 82.145 295.683 82.0083 295.955 81.735C296.227 81.4616 296.499 81.1883 296.499 80.6415C296.499 80.2315 296.227 79.8214 295.819 79.5481C295.41 79.2747 294.73 79.138 294.049 79.138C293.232 79.138 292.551 79.2747 292.143 79.6848C291.735 80.0948 291.462 80.6415 291.462 81.1883H287.923C287.923 80.5048 288.059 79.6848 288.331 79.138C288.604 78.4546 288.876 77.9079 289.42 77.4979C289.965 77.0878 290.509 76.6778 291.326 76.4044C292.143 76.1311 293.096 75.9944 294.321 75.9944C295.41 75.9944 296.363 76.1311 297.18 76.4044C297.997 76.6778 298.541 77.0878 299.086 77.4979C299.63 78.0446 299.903 78.5913 300.175 79.2747C300.447 79.9581 300.447 80.7782 300.447 81.735V90.8926H296.908V91.0293ZM296.635 83.9219C296.499 84.0585 296.091 84.3319 295.819 84.3319C295.41 84.4686 294.866 84.6053 294.185 84.7419C293.096 85.0153 292.279 85.2887 291.871 85.562C291.462 85.8354 291.19 86.3821 291.19 87.0655C291.19 88.159 291.871 88.7057 293.096 88.7057C293.641 88.7057 294.049 88.569 294.457 88.4323C294.866 88.2956 295.274 88.0223 295.546 87.7489C295.819 87.4756 296.091 87.0655 296.227 86.7922C296.363 86.3821 296.499 85.9721 296.499 85.562L296.635 83.9219Z" fill="black"/>
<path d="M302.762 91.0293V76.5412H306.301V78.318C306.573 77.7713 306.982 77.4979 307.254 77.2246C307.663 76.9512 307.935 76.6779 308.343 76.5412C308.752 76.4045 309.024 76.2678 309.432 76.2678C309.841 76.2678 310.249 76.2678 310.521 76.2678H311.066V80.2316C310.657 80.2316 310.385 80.0949 309.977 80.0949C307.663 80.0949 306.437 81.325 306.437 83.6486V91.166H302.762V91.0293Z" fill="black"/>
<path d="M322.365 91.0292V89.2523C321.548 90.7558 320.187 91.4392 318.281 91.4392C317.328 91.4392 316.511 91.3025 315.694 90.8925C314.878 90.4825 314.333 90.0724 313.789 89.389C313.244 88.7056 312.836 87.8855 312.427 86.9288C312.155 85.972 312.019 84.8786 312.019 83.6484C312.019 82.555 312.155 81.5982 312.427 80.6415C312.699 79.6847 313.108 79.0013 313.652 78.3179C314.197 77.6345 314.741 77.0878 315.558 76.8144C316.239 76.4044 317.192 76.2677 318.009 76.2677C319.778 76.2677 321.276 77.0878 322.365 78.5912V71.3472H326.177V91.1659H322.365V91.0292ZM319.234 88.2956C320.187 88.2956 320.867 87.8855 321.548 87.2021C322.229 86.382 322.501 85.4253 322.501 84.1951C322.501 81.0515 321.412 79.4113 319.234 79.4113C317.056 79.4113 315.967 80.9148 315.967 83.9218C315.967 85.1519 316.239 86.2454 316.92 87.0654C317.464 87.8855 318.281 88.2956 319.234 88.2956Z" fill="black"/>
<defs>
<linearGradient id="paint0_linear_44_2394" x1="98.411" y1="55.3945" x2="98.411" y2="0" gradientUnits="userSpaceOnUse">
<stop offset="0.3058" stop-color="#E0C5AC"/>
<stop offset="0.456" stop-color="#D0AE92"/>
<stop offset="0.7196" stop-color="#B88A68"/>
<stop offset="0.855" stop-color="#AF7C58"/>
</linearGradient>
<linearGradient id="paint1_linear_44_2394" x1="154.91" y1="55.3945" x2="154.91" y2="0" gradientUnits="userSpaceOnUse">
<stop offset="0.3058" stop-color="#E0C5AC"/>
<stop offset="0.456" stop-color="#D0AE92"/>
<stop offset="0.7196" stop-color="#B88A68"/>
<stop offset="0.855" stop-color="#AF7C58"/>
</linearGradient>
<linearGradient id="paint2_linear_44_2394" x1="99.3717" y1="27.6972" x2="154.024" y2="27.6972" gradientUnits="userSpaceOnUse">
<stop offset="0.3058" stop-color="#E0C5AC"/>
<stop offset="0.456" stop-color="#D0AE92"/>
<stop offset="0.7196" stop-color="#B88A68"/>
<stop offset="0.855" stop-color="#AF7C58"/>
</linearGradient>
</defs>
</svg>
