<svg width="125" height="47" viewBox="0 0 125 47" fill="none" xmlns="http://www.w3.org/2000/svg">
<path d="M15.2887 30.6282C15.2887 31.374 15.4381 32.0204 15.7867 32.4679C16.1353 32.9651 16.9322 33.4126 18.1772 33.8104V34.6059H6.02578V33.8104C7.3206 33.4126 8.11741 32.9651 8.41622 32.4679C8.76482 31.9707 8.91422 31.374 8.91422 30.6282V9.69564C8.91422 8.94982 8.76482 8.45261 8.51582 8.25372C8.26681 8.05484 7.76881 7.9554 7.07159 7.9554H4.28275L0.796695 14.9164H0.0496826V5.96655H24.2031V14.9164H23.4063L19.8704 7.9554H17.0816C16.3843 7.9554 15.8863 8.05484 15.6373 8.25372C15.3883 8.45261 15.2389 8.9001 15.2389 9.69564V30.6282H15.2887Z" fill="#262524"/>
<path d="M25 20.3856C25 18.3471 25.2988 16.408 25.9462 14.5683C26.5936 12.7286 27.4402 11.1872 28.5857 9.79505C29.6813 8.45258 31.0259 7.35872 32.5199 6.56318C34.0139 5.76764 35.6574 5.36987 37.3506 5.36987C39.1434 5.36987 40.7371 5.76764 42.2809 6.56318C43.7749 7.35872 45.0697 8.40286 46.2151 9.79505C47.3108 11.1375 48.2072 12.7286 48.8546 14.5683C49.502 16.408 49.8008 18.3471 49.8008 20.3856C49.8008 22.4739 49.502 24.3633 48.8546 26.1533C48.2072 27.9433 47.3606 29.5343 46.2151 30.8768C45.1195 32.2193 43.7749 33.2634 42.2809 34.059C40.7869 34.8545 39.1434 35.2523 37.3506 35.2523C35.6076 35.2523 34.0139 34.8545 32.5199 34.059C31.0259 33.2634 29.7311 32.2193 28.5857 30.8768C27.49 29.5343 26.5936 27.993 25.9462 26.1533C25.3486 24.3633 25 22.4242 25 20.3856ZM31.9721 20.4354C31.9721 22.2751 32.0717 23.9656 32.3207 25.5566C32.5697 27.1477 32.9183 28.5399 33.3665 29.7332C33.8147 30.9265 34.4124 31.8215 35.0598 32.5176C35.757 33.164 36.504 33.512 37.4004 33.512C38.2968 33.512 39.0936 33.164 39.7908 32.5176C40.488 31.8712 41.0359 30.9265 41.5339 29.7332C41.9821 28.5399 42.3307 27.1477 42.5797 25.5566C42.8287 23.9656 42.9283 22.2751 42.9283 20.4354C42.9283 18.5957 42.8287 16.9052 42.5797 15.2644C42.3307 13.6733 41.9821 12.2314 41.5339 11.0381C41.0857 9.84477 40.488 8.90007 39.7908 8.15426C39.0936 7.45816 38.2968 7.11011 37.4004 7.11011C36.504 7.11011 35.757 7.45816 35.0598 8.15426C34.3626 8.85035 33.8147 9.79505 33.3665 11.0381C32.9183 12.2314 32.5697 13.6236 32.3207 15.2644C32.0717 16.9052 31.9721 18.5957 31.9721 20.4354Z" fill="#262524"/>
<path d="M51.9422 18.4466C51.9422 16.8058 52.241 15.2148 52.8386 13.6237C53.4362 12.0326 54.2829 10.6901 55.3287 9.4471C56.4243 8.2538 57.6693 7.25937 59.1633 6.51356C60.6574 5.76774 62.3008 5.41969 64.0936 5.41969C64.8406 5.41969 65.5876 5.51913 66.2849 5.6683C66.9821 5.81746 67.6295 6.01635 68.3267 6.31467C68.9741 4.27611 70.0697 2.83419 71.5139 1.93921C73.008 1.04423 74.6514 0.497301 76.494 0.198975V6.06607C75.5976 5.6683 74.7012 5.46941 73.7052 5.46941C72.9582 5.46941 72.261 5.56886 71.5637 5.81746C70.8665 6.06607 70.2689 6.46384 69.8207 7.01077C71.7629 8.20407 73.3566 9.84487 74.4522 11.8834C75.5976 13.922 76.1454 16.1097 76.1454 18.3969C76.1454 20.0874 75.8466 21.6785 75.249 23.2199C74.6514 24.7612 73.8048 26.1534 72.759 27.3467C71.6633 28.54 70.4183 29.5344 68.9243 30.2305C67.4303 30.9763 65.8366 31.3244 64.0438 31.3244C62.3008 31.3244 60.757 30.9763 59.3127 30.33C59.0637 30.5786 58.9143 30.9266 58.9143 31.3741C58.9143 32.1697 59.3127 32.7663 60.1594 33.1641C61.006 33.5618 62.0518 33.9099 63.3466 34.1585C64.6414 34.4071 66.0358 34.6557 67.4801 34.8546C68.9741 35.1032 70.3685 35.4015 71.6633 35.7993C72.9582 36.1971 74.004 36.744 74.8506 37.4401C75.6972 38.1362 76.1454 39.1306 76.1454 40.3736C76.1454 41.6167 75.747 42.6111 74.9502 43.4066C74.1534 44.2022 73.1574 44.8485 71.9621 45.3457C70.7669 45.843 69.4721 46.191 68.0279 46.3899C66.5837 46.5888 65.239 46.6882 63.994 46.6882C62.4004 46.6882 60.8068 46.5391 59.3127 46.2407C57.7689 45.9424 56.4741 45.5446 55.2789 44.9977C54.1335 44.4508 53.1872 43.8044 52.49 42.9591C51.7928 42.1139 51.4442 41.1692 51.4442 40.0753C51.4442 39.4787 51.5936 38.882 51.8426 38.3848C52.0916 37.8876 52.6394 37.3406 53.3864 36.8434L59.7609 37.8379C59.3625 38.7328 59.1135 39.6278 59.1633 40.5228C59.1633 41.3681 59.4123 42.1139 59.8107 42.81C60.2092 43.4563 60.8068 44.0033 61.5538 44.4011C62.3008 44.7988 63.247 44.9977 64.3426 44.9977C65.5876 44.9977 66.6335 44.6994 67.4801 44.053C68.2769 43.4066 68.6753 42.4122 68.6753 41.02C68.6753 39.777 68.2769 38.8323 67.5299 38.1859C66.7829 37.5395 65.7868 36.9926 64.6912 36.6446C63.5458 36.2965 62.3008 35.9982 61.006 35.7993C59.6613 35.6004 58.4661 35.3518 57.3207 35.1032C56.1753 34.8049 55.2291 34.4071 54.4821 33.9099C53.7351 33.4127 53.3366 32.6669 53.3366 31.6724C53.3366 30.8769 53.6354 30.2305 54.2331 29.8328C54.8307 29.3853 55.7271 29.0372 56.8725 28.6892C55.3287 27.4461 54.1335 25.9545 53.2868 24.1148C52.3406 22.3746 51.9422 20.4355 51.9422 18.4466ZM58.8645 18.4963C58.8645 19.9383 59.0139 21.3304 59.2629 22.6729C59.5119 24.0154 59.9103 25.2087 60.3586 26.2528C60.8068 27.297 61.3546 28.0925 62.002 28.7389C62.6494 29.3853 63.3466 29.6836 64.0936 29.6836C64.8406 29.6836 65.488 29.3853 66.1355 28.7389C66.7829 28.0925 67.3307 27.297 67.7789 26.2528C68.2271 25.2087 68.6255 24.0154 68.8745 22.6729C69.1235 21.3304 69.2729 19.9383 69.2729 18.4963C69.2729 17.0544 69.1235 15.6622 68.8745 14.2701C68.6255 12.9276 68.2271 11.6846 67.7789 10.6404C67.3307 9.54655 66.7829 8.70129 66.1355 8.10463C65.488 7.45826 64.8406 7.15993 64.0936 7.15993C63.3466 7.15993 62.5996 7.45826 62.002 8.10463C61.3546 8.75101 60.8068 9.59627 60.3586 10.6404C59.9103 11.6846 59.5119 12.9276 59.2629 14.2701C59.0139 15.6125 58.8645 17.0544 58.8645 18.4963Z" fill="#262524"/>
<path d="M107.022 25.7057H107.769C108.765 28.2912 109.811 30.1309 110.807 31.2745C111.853 32.4181 113.147 33.0147 114.691 33.0147C116.036 33.0147 117.032 32.6667 117.729 31.9209C118.426 31.175 118.725 30.3298 118.725 29.3354C118.725 28.3409 118.426 27.446 117.878 26.6007C117.281 25.8052 116.584 24.9599 115.687 24.2141C114.791 23.4186 113.845 22.6727 112.849 21.8772C111.803 21.0817 110.857 20.2364 110.01 19.3414C109.114 18.4464 108.416 17.452 107.819 16.4079C107.221 15.314 106.972 14.1207 106.972 12.7285C106.972 11.8335 107.122 10.9386 107.42 10.0436C107.719 9.1486 108.217 8.40278 108.865 7.70668C109.512 7.01059 110.359 6.46365 111.404 6.06589C112.45 5.66812 113.695 5.41951 115.139 5.41951C116.235 5.41951 117.331 5.56867 118.426 5.81728C119.472 6.06589 120.468 6.46365 121.365 6.96087L123.157 5.96644H123.904V15.2146H123.157C122.41 12.9274 121.464 11.038 120.319 9.54636C119.124 8.05473 117.729 7.30891 116.135 7.30891C115.438 7.30891 114.89 7.45808 114.442 7.7564C113.994 8.05473 113.645 8.40278 113.446 8.80055C113.197 9.19832 113.048 9.64581 112.948 10.0436C112.849 10.4911 112.799 10.8391 112.799 11.1374C112.799 12.0821 113.098 12.9771 113.645 13.7229C114.243 14.5185 114.94 15.2643 115.837 16.0101C116.733 16.7559 117.679 17.5017 118.675 18.2476C119.671 18.9934 120.667 19.8386 121.514 20.6839C122.41 21.5292 123.108 22.4739 123.705 23.518C124.303 24.5621 124.552 25.7554 124.552 27.0482C124.552 27.9432 124.402 28.8382 124.104 29.7829C123.805 30.7276 123.307 31.6225 122.56 32.4181C121.863 33.2136 120.916 33.86 119.821 34.4069C118.725 34.9041 117.331 35.2025 115.737 35.2025C115.239 35.2025 114.641 35.1527 113.944 35.103C113.247 35.0533 112.5 34.9041 111.703 34.755C110.956 34.6058 110.159 34.3572 109.313 34.0589C108.516 33.7605 107.769 33.4125 107.072 32.965C106.673 33.3628 106.225 33.7605 105.727 34.1086C105.279 34.4069 104.781 34.6555 104.133 34.9041C103.486 35.103 102.739 35.2025 101.942 35.2025C100.946 35.2025 99.9502 35.0036 99.004 34.5561C98.0578 34.1583 97.2111 33.5119 96.5637 32.617C96.0657 33.1142 95.3187 33.6611 94.3227 34.2578C93.3267 34.8544 91.9821 35.1527 90.1892 35.1527C88.496 35.1527 86.9024 34.8047 85.4084 34.1086C83.9143 33.4125 82.6195 32.4181 81.5239 31.1253C80.4283 29.8326 79.5817 28.2912 78.9342 26.5013C78.2868 24.7113 77.988 22.6727 77.988 20.4353C77.988 18.347 78.2868 16.3582 78.8346 14.5185C79.4323 12.6788 80.2291 11.0877 81.2251 9.74525C82.2211 8.40278 83.4661 7.30891 84.9103 6.51338C86.3546 5.71784 87.8984 5.32007 89.5916 5.32007C90.5378 5.32007 91.3346 5.41951 92.0817 5.6184C92.8287 5.81728 93.4761 6.06589 94.0239 6.41393C94.5717 6.71226 95.0697 7.06031 95.4183 7.40836C95.8167 7.7564 96.1155 8.05473 96.3645 8.35306L100.747 5.96644H101.594V29.3354C101.594 30.4292 101.843 31.1751 102.341 31.6723C102.839 32.1695 103.486 32.3684 104.233 32.3684C105.03 32.3684 105.727 32.1198 106.225 31.5728C106.723 31.0259 107.022 30.2303 107.022 29.0868V25.7057ZM95.2191 10.2425C94.7211 9.54636 94.1235 8.94971 93.3765 8.4525C92.6793 7.95529 91.8825 7.70668 91.0358 7.70668C90.0896 7.70668 89.2928 8.00501 88.5458 8.65138C87.7988 9.29776 87.1514 10.1927 86.6036 11.3363C86.0558 12.4799 85.6574 13.8721 85.3586 15.4135C85.0597 17.0045 84.9103 18.7448 84.9103 20.5845C84.9103 22.623 85.0597 24.413 85.4084 26.0041C85.757 27.5951 86.1554 28.9376 86.753 30.0315C87.3008 31.1253 87.9482 31.9706 88.6454 32.5672C89.3426 33.1639 90.0896 33.4622 90.8366 33.4622C91.7829 33.4622 92.6793 33.0645 93.4263 32.2689C94.1733 31.4734 94.8207 30.479 95.3685 29.2856C95.3187 29.0868 95.3187 28.7884 95.3187 28.4404V10.2425H95.2191Z" fill="#262524"/>
</svg>
